<?xml version="1.0" encoding="utf-8"?>
<!-- Svg Vector Icons : http://www.onlinewebfonts.com/icon -->
<!DOCTYPE svg PUBLIC "-//W3C//DTD SVG 1.1//EN" "http://www.w3.org/Graphics/SVG/1.1/DTD/svg11.dtd">
<svg version="1.1" xmlns="http://www.w3.org/2000/svg" xmlns:xlink="http://www.w3.org/1999/xlink" x="0px" y="0px" viewBox="0 0 1000 1000" enable-background="new 0 0 1000 1000" xml:space="preserve">
<metadata> Svg Vector Icons : http://www.onlinewebfonts.com/icon </metadata>
<g><g><path d="M979.2,468.6c-35.8-35.8-377-366.1-377-366.1s-45.4-45.7-45.4,14.9c0,60.6,0,157.1,0,157.1s-26.4,0-66.6,0c-124.2,0-365.9,0-458.5,0c0,0-21.7-0.7-21.7,27.3c0,28.1,0,347.1,0,386.4c0,39.3,26,32.4,26,32.4c95.1,0,328.8,0,457.4,0c45,0,74.2,0,74.2,0s0,120.5,0,170.3c0,49.8,43.3,3.9,43.3,3.9l365.2-375.4C976.2,519.4,1005.2,494.5,979.2,468.6z"/></g><g></g><g></g><g></g><g></g><g></g><g></g><g></g><g></g><g></g><g></g><g></g><g></g><g></g><g></g><g></g></g>
</svg>